<svg xmlns="http://www.w3.org/2000/svg" viewBox="0 0 363.049 208.459">
  <defs>
    <style>
      .cls-1, .cls-3 {
        fill: #fff;
      }

      .cls-1 {
        font-size: 25px;
        font-family: Helvetica;
        letter-spacing: 0.02em;
      }

      .cls-2 {
        fill: #00539b;
      }
    </style>
  </defs>
  <g id="Group_486" data-name="Group 486" transform="translate(-117.912 -591)">
    <text id="in_partnership_with" data-name="in partnership with" class="cls-1" transform="translate(216.041 683.046)"><tspan x="0" y="0">in partnership with</tspan></text>
    <g id="Group_341" data-name="Group 341" transform="translate(182.455 727.374)">
      <g id="Group_340" data-name="Group 340" transform="translate(0 0)">
        <path id="Path_331" data-name="Path 331" class="cls-2" d="M24.862,34.78H15.594l5-16.33ZM10.739,53.17l3.236-10.886h12.5L29.423,53.17H41.045L29.423,11.831C28.834,9.477,27.363,8.3,24.715,8.3H8.385v3.825H9.709c1.765,0,2.648.736,2.648,2.06a10.18,10.18,0,0,1-.883,3.678L0,53.17Z" transform="translate(0 3.91)"/>
        <path id="Path_332" data-name="Path 332" class="cls-2" d="M41.84,53.122V11.784C41.84,9.577,40.663,8.4,38.6,8.4h-10v3.825h.736c1.765,0,2.5.736,2.5,2.5V53.27h10Z" transform="translate(13.474 3.958)"/>
        <path id="Path_333" data-name="Path 333" class="cls-2" d="M54.14,53.122V11.784C54.14,9.577,52.963,8.4,50.9,8.4h-10v3.825h.736c1.765,0,2.5.736,2.5,2.5V53.27h10Z" transform="translate(19.269 3.958)"/>
        <path id="Path_334" data-name="Path 334" class="cls-2" d="M66.34,12.608c0-2.942-2.06-4.708-5.737-4.708s-5.737,1.765-5.737,4.708,2.207,4.708,5.737,4.708C64.281,17.315,66.34,15.55,66.34,12.608Zm0,40.75V22.906c0-2.207-1.177-3.531-3.236-3.531h-10v4.119h.588c1.765,0,2.5.736,2.5,2.5V53.358H66.34Z" transform="translate(25.017 3.722)"/>
        <path id="Path_335" data-name="Path 335" class="cls-2" d="M83.406,33.648v6.473c-1.765,1.765-3.825,2.942-5.737,2.942s-2.5-.883-2.5-3.384.588-3.678,2.354-4.413A26.945,26.945,0,0,1,83.406,33.648Zm-13.829-7.8A25.407,25.407,0,0,1,79.729,23.2c2.8,0,3.825,1.03,3.825,3.972v.736c-4.119.736-5.443.883-7.8,1.471a16.8,16.8,0,0,0-3.825,1.324c-4.119,1.618-6.032,5-6.032,10,0,6.326,2.648,9.415,8.238,9.415a15.588,15.588,0,0,0,5.443-1.03,17.387,17.387,0,0,0,4.413-2.942v.441c0,2.06,1.03,3.236,3.089,3.236h9.562V46.005h-.441c-1.765,0-2.5-.736-2.5-2.8V27.175c0-8.533-2.942-11.475-11.328-11.475a36.521,36.521,0,0,0-7.944.883,30.479,30.479,0,0,0-7.061,2.648Z" transform="translate(31.048 7.397)"/>
        <path id="Path_336" data-name="Path 336" class="cls-2" d="M101.54,49.824v-22.8a7.724,7.724,0,0,1,5.885-2.8c2.354,0,2.942.883,2.942,4.266V49.972h10.151V26.728c0-5.3-.441-7.061-2.06-8.974-1.471-1.618-3.531-2.354-6.326-2.354-4.119,0-7.061,1.324-11.033,5.149V19.225c0-2.207-1.03-3.384-3.089-3.384H88.3v4.119h.588c1.765,0,2.5.736,2.5,2.5V49.824H101.54Z" transform="translate(41.601 7.255)"/>
        <path id="Path_337" data-name="Path 337" class="cls-2" d="M139.892,42.68H125.475L139.3,23.114V16.2H117.531c-2.5,0-3.531,1.177-3.531,3.678v6.032h4.119v-.588c0-1.471.736-2.354,2.5-2.354h7.356L114,42.68v6.767h26.039V42.68Z" transform="translate(53.709 7.632)"/>
        <path id="Path_338" data-name="Path 338" class="cls-2" d="M182.062,55.02V17.654c0-2.942-1.03-3.972-3.825-3.972h-8.385v3.972h1.324a1.272,1.272,0,0,1,.883.441c.441.441.441.883.441,1.912V54.873h9.562Zm4.708,0h9.562V26.627c0-2.8-1.03-3.972-3.972-3.972h-5.59Zm-18.242,0V22.655h-5.59c-2.8,0-3.825,1.177-3.825,3.972V55.02Zm37.367-18.978c0,16.918-12.063,29.276-28.54,29.276s-28.54-12.358-28.54-29.276,12.063-29.276,28.54-29.276S205.894,19.125,205.894,36.043Zm6.767,0C212.661,15.447,197.509,0,177.354,0,157.053,0,141.9,15.447,141.9,36.043c0,20.743,15.153,36.043,35.454,36.043C197.509,72.085,212.661,56.639,212.661,36.043Z" transform="translate(66.854)"/>
      </g>
    </g>
    <g id="Group_344" data-name="Group 344" transform="translate(117.912 591)">
      <g id="Group_317" data-name="Group 317" transform="translate(0 0)">
        <path id="Path_315" data-name="Path 315" class="cls-3" d="M35.947,83.555a2.4,2.4,0,0,1-1.271-.333,2.572,2.572,0,0,1-1.156-1.887l-.347-27.743a2.348,2.348,0,0,1,1.387-2.108l12.6-5.438a2.809,2.809,0,0,1,2.312.111,2.572,2.572,0,0,1,1.156,1.887l.231,19.2a2.372,2.372,0,0,1-4.739.111l-.231-15.758-7.86,3.44.347,22.75L68.194,64.8l-.462-31.295L47.274,20.855,28.549,45.713,29.012,81A2.369,2.369,0,0,1,25.2,82.889L1.387,66.243a2.286,2.286,0,0,1-.925-1.776L0,30.62a2.064,2.064,0,0,1,.578-1.443L21.036,5.54a2.389,2.389,0,0,1,2.89-.555L37.1,11.533l-.116-4.661a2.09,2.09,0,0,1,1.271-2L46.927.325a2.539,2.539,0,0,1,2.2,0l4.045,1.887a2.2,2.2,0,0,1,1.271,2l.116,9.877a2.372,2.372,0,0,1-4.739.111L49.7,5.651l-1.618-.777L41.841,8.2l.116,7.1a2.414,2.414,0,0,1-3.468,2.108L23.464,9.979,4.739,31.4,5.2,63.247,24.157,76.564l-.462-31.517a1.888,1.888,0,0,1,.462-1.332L44.731,16.638a2.433,2.433,0,0,1,3.236-.555L71.315,30.51a2.158,2.158,0,0,1,1.04,1.887l.462,33.736a2.348,2.348,0,0,1-1.387,2.109L36.871,83.333a2.812,2.812,0,0,1-.925.222" transform="translate(0 -0.075)"/>
        <path id="Path_316" data-name="Path 316" class="cls-3" d="M82.1,43.346l1.5-1.665c3.352,3,6.473,4.439,11.1,4.439s7.744-2.441,7.744-5.882v-.111c0-3.107-1.734-4.994-8.669-6.325-7.4-1.443-10.4-3.884-10.4-8.323v-.111c0-4.439,4.161-7.768,9.94-7.768a15.968,15.968,0,0,1,10.518,3.551l-1.5,1.776A13.377,13.377,0,0,0,93.08,19.6c-4.508,0-7.513,2.441-7.513,5.549v.111c0,3.107,1.618,4.994,9.016,6.436,7.166,1.443,10.171,3.884,10.171,8.212v.111c0,4.772-4.277,8.1-10.171,8.1A18.366,18.366,0,0,1,82.1,43.346" transform="translate(12.794 1.848)"/>
        <path id="Path_317" data-name="Path 317" class="cls-3" d="M107.9,18h11.212c6.819,0,11.443,3.329,11.443,9.1v.111c0,6.215-5.548,9.433-12.021,9.433h-8.322V47.63H107.9Zm10.749,16.535c5.779,0,9.593-2.885,9.593-7.324V27.1c0-4.661-3.814-7.1-9.362-7.1h-8.669V34.535Z" transform="translate(16.815 1.892)"/>
        <path id="Path_318" data-name="Path 318" class="cls-3" d="M132.9,18h21.961v2H135.212V31.65H152.9v2H135.212V45.521h19.88V47.63H132.9Z" transform="translate(20.711 1.892)"/>
        <path id="Path_319" data-name="Path 319" class="cls-3" d="M158.1,18h21.961v2H160.412V31.65H177.98v2H160.412V45.521h19.765V47.63H158.1Z" transform="translate(24.638 1.892)"/>
        <path id="Path_320" data-name="Path 320" class="cls-3" d="M183.2,18h10.287C203.2,18,209.9,24.436,209.9,32.759v.111c0,8.323-6.7,14.759-16.413,14.759H183.2Zm10.287,27.521c8.553,0,13.986-5.66,13.986-12.651v-.111c0-6.991-5.432-12.762-13.986-12.762h-7.975V45.521Z" transform="translate(28.549 1.892)"/>
        <path id="Path_321" data-name="Path 321" class="cls-3" d="M211.9,18H226c3.93,0,6.935,1.11,9.016,3a9.1,9.1,0,0,1,2.658,6.769v.111c0,4.772-2.658,7.768-6.588,9.211L238.6,47.63h-7.975L224.036,38.2h-5.317V47.63H211.9V18Zm13.639,14.427c3.352,0,5.2-1.665,5.2-4.217V28.1c0-2.774-2.081-4.217-5.317-4.217h-6.7v8.545Z" transform="translate(33.022 1.892)"/>
        <path id="Path_322" data-name="Path 322" class="cls-3" d="M239,18h23.348v5.771H245.819v5.993h14.448v5.882H245.819v6.215h16.76V47.63H239Z" transform="translate(37.245 1.892)"/>
        <path id="Path_323" data-name="Path 323" class="cls-3" d="M264.2,18h6.242L284.89,36.2V18h6.7V47.63h-5.779L270.9,28.764V47.63h-6.7Z" transform="translate(41.172 1.892)"/>
        <path id="Path_324" data-name="Path 324" class="cls-3" d="M301.362,23.993H292V18h25.544v5.993h-9.362V47.63h-6.819Z" transform="translate(45.505 1.892)"/>
      </g>
    </g>
  </g>
</svg>
