<svg id="Group_341" data-name="Group 341" xmlns="http://www.w3.org/2000/svg" viewBox="0 0 279.515 72.085">
  <defs>
    <style>
      .cls-1 {
        'fill': '#00539b'
      }
    </style>
  </defs>
  <g id="Group_340" data-name="Group 340" transform="translate(0 0)">
    <path id="Path_331" data-name="Path 331" class="cls-1" d="M24.862,34.78H15.594l5-16.33ZM10.739,53.17l3.236-10.886h12.5L29.423,53.17H41.045L29.423,11.831C28.834,9.477,27.363,8.3,24.715,8.3H8.385v3.825H9.709c1.765,0,2.648.736,2.648,2.06a10.18,10.18,0,0,1-.883,3.678L0,53.17Z" transform="translate(0 3.91)"/>
    <path id="Path_332" data-name="Path 332" class="cls-1" d="M41.84,53.122V11.784C41.84,9.577,40.663,8.4,38.6,8.4h-10v3.825h.736c1.765,0,2.5.736,2.5,2.5V53.27h10Z" transform="translate(13.474 3.958)"/>
    <path id="Path_333" data-name="Path 333" class="cls-1" d="M54.14,53.122V11.784C54.14,9.577,52.963,8.4,50.9,8.4h-10v3.825h.736c1.765,0,2.5.736,2.5,2.5V53.27h10Z" transform="translate(19.269 3.958)"/>
    <path id="Path_334" data-name="Path 334" class="cls-1" d="M66.34,12.608c0-2.942-2.06-4.708-5.737-4.708s-5.737,1.765-5.737,4.708,2.207,4.708,5.737,4.708C64.281,17.315,66.34,15.55,66.34,12.608Zm0,40.75V22.906c0-2.207-1.177-3.531-3.236-3.531h-10v4.119h.588c1.765,0,2.5.736,2.5,2.5V53.358H66.34Z" transform="translate(25.017 3.722)"/>
    <path id="Path_335" data-name="Path 335" class="cls-1" d="M83.406,33.648v6.473c-1.765,1.765-3.825,2.942-5.737,2.942s-2.5-.883-2.5-3.384.588-3.678,2.354-4.413A26.945,26.945,0,0,1,83.406,33.648Zm-13.829-7.8A25.407,25.407,0,0,1,79.729,23.2c2.8,0,3.825,1.03,3.825,3.972v.736c-4.119.736-5.443.883-7.8,1.471a16.8,16.8,0,0,0-3.825,1.324c-4.119,1.618-6.032,5-6.032,10,0,6.326,2.648,9.415,8.238,9.415a15.588,15.588,0,0,0,5.443-1.03,17.387,17.387,0,0,0,4.413-2.942v.441c0,2.06,1.03,3.236,3.089,3.236h9.562V46.005h-.441c-1.765,0-2.5-.736-2.5-2.8V27.175c0-8.533-2.942-11.475-11.328-11.475a36.521,36.521,0,0,0-7.944.883,30.479,30.479,0,0,0-7.061,2.648Z" transform="translate(31.048 7.397)"/>
    <path id="Path_336" data-name="Path 336" class="cls-1" d="M101.54,49.824v-22.8a7.724,7.724,0,0,1,5.885-2.8c2.354,0,2.942.883,2.942,4.266V49.972h10.151V26.728c0-5.3-.441-7.061-2.06-8.974-1.471-1.618-3.531-2.354-6.326-2.354-4.119,0-7.061,1.324-11.033,5.149V19.225c0-2.207-1.03-3.384-3.089-3.384H88.3v4.119h.588c1.765,0,2.5.736,2.5,2.5V49.824H101.54Z" transform="translate(41.601 7.255)"/>
    <path id="Path_337" data-name="Path 337" class="cls-1" d="M139.892,42.68H125.475L139.3,23.114V16.2H117.531c-2.5,0-3.531,1.177-3.531,3.678v6.032h4.119v-.588c0-1.471.736-2.354,2.5-2.354h7.356L114,42.68v6.767h26.039V42.68Z" transform="translate(53.709 7.632)"/>
    <path id="Path_338" data-name="Path 338" class="cls-1" d="M182.062,55.02V17.654c0-2.942-1.03-3.972-3.825-3.972h-8.385v3.972h1.324a1.272,1.272,0,0,1,.883.441c.441.441.441.883.441,1.912V54.873h9.562Zm4.708,0h9.562V26.627c0-2.8-1.03-3.972-3.972-3.972h-5.59Zm-18.242,0V22.655h-5.59c-2.8,0-3.825,1.177-3.825,3.972V55.02Zm37.367-18.978c0,16.918-12.063,29.276-28.54,29.276s-28.54-12.358-28.54-29.276,12.063-29.276,28.54-29.276S205.894,19.125,205.894,36.043Zm6.767,0C212.661,15.447,197.509,0,177.354,0,157.053,0,141.9,15.447,141.9,36.043c0,20.743,15.153,36.043,35.454,36.043C197.509,72.085,212.661,56.639,212.661,36.043Z" transform="translate(66.854)"/>
  </g>
</svg>
