<svg xmlns="http://www.w3.org/2000/svg" viewBox="0 0 130 105.625">
  <defs>
    <style>
      .cls-1 {
        fill: #fff;
      }
    </style>
  </defs>
  <g id="Group_66" data-name="Group 66" transform="translate(0)">
    <path id="Path_193" data-name="Path 193" class="cls-1" d="M38.594,60.938A26.406,26.406,0,1,0,65,34.531,26.406,26.406,0,0,0,38.594,60.938ZM121.875,16.25H93.438C91.406,8.125,89.375,0,81.25,0H48.75C40.625,0,38.594,8.125,36.563,16.25H8.125A8.141,8.141,0,0,0,0,24.375V97.5a8.141,8.141,0,0,0,8.125,8.125h113.75A8.141,8.141,0,0,0,130,97.5V24.375a8.141,8.141,0,0,0-8.125-8.125ZM65,96.992a36.055,36.055,0,1,1,36.055-36.055A36.071,36.071,0,0,1,65,96.992Zm56.875-56.367h-16.25V32.5h16.25Zm0,0"/>
  </g>
</svg>
