<svg id="Group_24" data-name="Group 24" xmlns="http://www.w3.org/2000/svg" viewBox="0 0 68.403 60">
  <defs>
    <style>
      .cls-1 {
        fill: #383838;
      }
    </style>
  </defs>
  <path id="Path_119" data-name="Path 119" class="cls-1" d="M62.819,0H5.585A5.582,5.582,0,0,0,0,5.585V39.051a5.591,5.591,0,0,0,5.585,5.584h3.26V58.41a1.591,1.591,0,0,0,.975,1.47,1.624,1.624,0,0,0,.615.12,1.578,1.578,0,0,0,1.122-.468l14.9-14.9H62.819A5.591,5.591,0,0,0,68.4,39.051V5.585A5.582,5.582,0,0,0,62.819,0Zm2.4,39.051a2.409,2.409,0,0,1-2.391,2.4H25.8a1.59,1.59,0,0,0-1.069.414l-.013.013-.053.053L12.024,54.562V43.046a.5.5,0,0,0-.013-.147,1.587,1.587,0,0,0-1.59-1.443H5.585a2.4,2.4,0,0,1-2.391-2.4V5.585A2.4,2.4,0,0,1,5.585,3.193H62.832a2.4,2.4,0,0,1,2.391,2.391V39.051Z" transform="translate(0 0)"/>
  <path id="Path_120" data-name="Path 120" class="cls-1" d="M94.29,90.18h9.272a1.59,1.59,0,0,0,0-3.18H94.29a1.59,1.59,0,0,0,0,3.18Z" transform="translate(-80.315 -75.377)"/>
  <path id="Path_121" data-name="Path 121" class="cls-1" d="M94.29,158.28H120.1a1.59,1.59,0,1,0,0-3.18H94.29a1.59,1.59,0,0,0,0,3.18Z" transform="translate(-80.315 -134.379)"/>
  <path id="Path_122" data-name="Path 122" class="cls-1" d="M255.087,87h-21.9a1.59,1.59,0,0,0,0,3.18h21.9a1.59,1.59,0,0,0,0-3.18Z" transform="translate(-200.658 -75.377)"/>
  <path id="Path_123" data-name="Path 123" class="cls-1" d="M359.748,155.1H353.99a1.59,1.59,0,1,0,0,3.18h5.758a1.59,1.59,0,0,0,0-3.18Z" transform="translate(-305.319 -134.379)"/>
  <path id="Path_124" data-name="Path 124" class="cls-1" d="M108.692,223.3H94.29a1.59,1.59,0,0,0,0,3.18h14.4a1.59,1.59,0,0,0,0-3.18Z" transform="translate(-80.315 -193.467)"/>
  <path id="Path_125" data-name="Path 125" class="cls-1" d="M282.985,223.3h-17.6a1.59,1.59,0,0,0,0,3.18h17.6a1.59,1.59,0,1,0,0-3.18Z" transform="translate(-228.556 -193.467)"/>
</svg>
