<svg xmlns="http://www.w3.org/2000/svg" viewBox="0 0 65.966 50.248">
  <defs>
    <style>
      .cls-1 {
        fill: #fff;
      }
    </style>
  </defs>
  <path id="Path_784" data-name="Path 784" class="cls-1" d="M65.966,5.8a5.807,5.807,0,0,0-5.8-5.8H5.8A5.807,5.807,0,0,0,0,5.8V44.45a5.807,5.807,0,0,0,5.8,5.8H60.169a5.807,5.807,0,0,0,5.8-5.8Zm-62.1.786,18.617,18.45L3.865,43.651ZM33.112,30.123,6.622,3.865H59.37Zm-7.885-2.371,6.532,6.468a1.944,1.944,0,0,0,2.731,0l6.365-6.365L59.37,46.383H6.6Zm18.347-2.628L62.1,6.6V43.651Z" transform="translate(0 0)"/>
</svg>
