<svg id="Group_344" data-name="Group 344" xmlns="http://www.w3.org/2000/svg" viewBox="0 0 380.512 91.13">
  <defs>
   
  </defs>
  <g id="Group_317" data-name="Group 317" transform="translate(0 0)">
    <path id="Path_315" data-name="Path 315" class="cls-1" d="M37.676,91.205a2.442,2.442,0,0,1-1.333-.363,2.826,2.826,0,0,1-1.211-2.059L34.768,58.5a2.569,2.569,0,0,1,1.454-2.3l13.2-5.936a2.536,2.536,0,0,1,3.634,2.181L53.3,73.4a2.484,2.484,0,1,1-4.967.121l-.242-17.2-8.238,3.755.363,24.834L71.475,70.732,70.99,36.569,49.548,22.759,29.922,49.9l.485,38.524a2.6,2.6,0,0,1-1.333,2.3,2.4,2.4,0,0,1-2.665-.242L1.454,72.307a2.529,2.529,0,0,1-.969-1.938L0,33.42a2.3,2.3,0,0,1,.606-1.575l21.442-25.8a2.435,2.435,0,0,1,3.029-.606l13.81,7.147L38.766,7.5A2.288,2.288,0,0,1,40.1,5.314L49.184.348a2.566,2.566,0,0,1,2.3,0l4.24,2.059a2.413,2.413,0,0,1,1.333,2.181l.121,10.782a2.484,2.484,0,0,1-4.967.121l-.121-9.328-1.7-.848L43.854,8.949l.121,7.753a2.707,2.707,0,0,1-1.211,2.181A2.475,2.475,0,0,1,40.341,19L24.592,10.887,4.967,34.268l.485,34.768L25.319,83.573l-.485-34.4a2.115,2.115,0,0,1,.485-1.454L46.883,18.156a2.483,2.483,0,0,1,3.392-.606L74.746,33.3a2.38,2.38,0,0,1,1.09,2.059l.485,36.828a2.569,2.569,0,0,1-1.454,2.3L38.645,90.963a2.851,2.851,0,0,1-.969.242" transform="translate(0 -0.075)"/>
    <path id="Path_316" data-name="Path 316" class="cls-1" d="M82.1,45.705l1.575-1.817c3.513,3.271,6.784,4.846,11.63,4.846s8.117-2.665,8.117-6.421v-.121c0-3.392-1.817-5.451-9.086-6.905-7.753-1.575-10.9-4.24-10.9-9.086V26.08c0-4.846,4.361-8.48,10.418-8.48a16.317,16.317,0,0,1,11.024,3.877L103.3,23.415a13.686,13.686,0,0,0-9.691-3.634c-4.725,0-7.874,2.665-7.874,6.057v.121c0,3.392,1.7,5.451,9.449,7.026,7.511,1.575,10.661,4.24,10.661,8.965v.121c0,5.209-4.482,8.843-10.661,8.843-5.209,0-9.207-1.817-13.083-5.209" transform="translate(17.359 3.63)"/>
    <path id="Path_317" data-name="Path 317" class="cls-1" d="M107.9,18h11.751c7.147,0,11.993,3.634,11.993,9.934v.121c0,6.784-5.815,10.3-12.6,10.3h-8.722V50.345H107.9Zm11.266,18.05c6.057,0,10.055-3.15,10.055-8v-.121c0-5.088-4-7.753-9.813-7.753h-9.086V36.05Z" transform="translate(22.814 3.715)"/>
    <path id="Path_318" data-name="Path 318" class="cls-1" d="M132.9,18h23.017v2.181H135.323V32.9h18.535v2.181H135.323V48.044H156.16v2.3H132.9Z" transform="translate(28.1 3.715)"/>
    <path id="Path_319" data-name="Path 319" class="cls-1" d="M158.1,18h23.017v2.181H160.523V32.9h18.414v2.181H160.523V48.044h20.716v2.3H158.1Z" transform="translate(33.428 3.715)"/>
    <path id="Path_320" data-name="Path 320" class="cls-1" d="M183.2,18h10.782c10.176,0,17.2,7.026,17.2,16.112v.121c0,9.086-7.026,16.112-17.2,16.112H183.2Zm10.782,30.044c8.965,0,14.658-6.178,14.658-13.81v-.121c0-7.632-5.694-13.932-14.658-13.932h-8.359V48.044Z" transform="translate(38.735 3.715)"/>
    <path id="Path_321" data-name="Path 321" class="cls-1" d="M211.9,18h14.78c4.119,0,7.269,1.211,9.449,3.271a10.151,10.151,0,0,1,2.786,7.39v.121a10.106,10.106,0,0,1-6.905,10.055l7.874,11.509h-8.359l-6.905-10.3h-5.573v10.3H211.9V18Zm14.295,15.749c3.513,0,5.451-1.817,5.451-4.6v-.121c0-3.029-2.181-4.6-5.573-4.6h-7.026v9.328Z" transform="translate(44.803 3.715)"/>
    <path id="Path_322" data-name="Path 322" class="cls-1" d="M239,18h24.471v6.3H246.147v6.542H261.29v6.421H246.147v6.784h17.566v6.3H239Z" transform="translate(50.533 3.715)"/>
    <path id="Path_323" data-name="Path 323" class="cls-1" d="M264.2,18h6.542l15.143,19.868V18h7.026V50.345h-6.057L271.226,29.751V50.345H264.2Z" transform="translate(55.861 3.715)"/>
    <path id="Path_324" data-name="Path 324" class="cls-1" d="M301.813,24.542H292V18h26.773v6.542H308.96v25.8h-7.147Z" transform="translate(61.739 3.715)"/>
  </g>
</svg>
