<svg xmlns="http://www.w3.org/2000/svg" viewBox="0 0 65.977 65.977">
  <defs>
    <style>
      .cls-1 {
        fill: #fff;
      }
    </style>
  </defs>
  <path id="Path_261" data-name="Path 261" class="cls-1" d="M32.989,0A32.989,32.989,0,1,0,61.948,48.813a32.607,32.607,0,0,0,4.029-15.824A32.97,32.97,0,0,0,32.989,0Zm0,60.823A27.834,27.834,0,1,1,60.823,32.989,27.817,27.817,0,0,1,32.989,60.823ZM43.3,26.868a10.328,10.328,0,0,1-7.732,9.987v4.188a2.577,2.577,0,0,1-5.154,0V34.6a2.585,2.585,0,0,1,2.577-2.577,5.154,5.154,0,1,0-5.154-5.154,2.577,2.577,0,0,1-5.154,0,10.309,10.309,0,0,1,20.618,0ZM36.21,48.774a3.222,3.222,0,1,1-3.222-3.222A3.223,3.223,0,0,1,36.21,48.774Z"/>
</svg>
