<svg xmlns="http://www.w3.org/2000/svg" viewBox="0 0 45 45">
  <defs>
    <style>
      .cls-1 {
        fill: none;
      }

      .cls-2 {
        fill: #727272;
      }
    </style>
  </defs>
  <g id="Help" transform="translate(-247 -538)">
    <rect id="Rectangle_481" data-name="Rectangle 481" class="cls-1" width="45" height="45" transform="translate(247 538)"/>
    <path id="Path_146" data-name="Path 146" class="cls-2" d="M22.5,0A22.5,22.5,0,1,0,45,22.5,22.566,22.566,0,0,0,22.5,0Zm-.225,37.35a3.15,3.15,0,1,1,3.15-3.15A3.076,3.076,0,0,1,22.275,37.35ZM28.35,19.8l-2.475,2.7a2.748,2.748,0,0,0-.9,2.025,2.736,2.736,0,0,1-2.7,2.7,2.6,2.6,0,0,1-2.7-2.7,5.021,5.021,0,0,1,1.8-4.05L23.4,18c1.125-1.35,1.575-2.25,1.575-3.15A2.361,2.361,0,0,0,22.5,12.375,2.647,2.647,0,0,0,19.8,14.4a2.938,2.938,0,0,1-2.7,1.575A2.361,2.361,0,0,1,14.625,13.5a2.446,2.446,0,0,1,.225-1.125c.9-2.7,3.6-4.725,7.65-4.725,4.725,0,7.875,3.15,7.875,7.2A7.382,7.382,0,0,1,28.35,19.8Z" transform="translate(247 538)"/>
  </g>
</svg>
