<svg xmlns="http://www.w3.org/2000/svg" viewBox="0 0 79.486 72.271">
  <defs>
    <style>
      .cls-1 {
        fill: #fff;
      }
    </style>
  </defs>
  <path id="Path_231" data-name="Path 231" class="cls-1" d="M42.885,47.238,33.7,38.176l.1-.1A63.231,63.231,0,0,0,47.2,14.481H57.79V7.232H32.519V0H25.287V7.232H0v7.2H40.361A56.977,56.977,0,0,1,28.912,33.79a57.227,57.227,0,0,1-8.35-12.11H13.33A63.518,63.518,0,0,0,24.1,38.159L5.725,56.316l5.115,5.115L28.912,43.359,40.141,54.588l2.744-7.351ZM63.226,28.912H55.994L39.735,72.271h7.232l4.065-10.84H68.189l4.065,10.84h7.232ZM53.742,54.2l5.877-15.667L65.5,54.2Z" transform="translate(0 0)"/>
</svg>
