<svg id="Group_356" data-name="Group 356" xmlns="http://www.w3.org/2000/svg" viewBox="0 0 70.975 66.244">
  <path id="Path_341" data-name="Path 341" style={{'fill': '#fff'}} d="M10.535,307.666c5.736,0,10.4-4.48,10.4-9.833S16.271,288,10.535,288,0,292.48,0,297.833s4.8,9.833,10.535,9.833Zm0,0" transform="translate(0 -241.423)"/>
  <path id="Path_342" data-name="Path 342" style={{'fill': '#fff'}} d="M33.547,185.014c0,.647-.052,1.294-.1,1.941H45.919c.035-.647.1-1.294.1-1.941C46.023,162.534,26.148,144,2.079,144c-.71,0-1.386.065-2.079.1v11.644c.693-.049,1.369-.1,2.079-.1,17.207,0,31.468,13.31,31.468,29.37Zm0,0" transform="translate(0 -120.711)"/>
  <path id="Path_343" data-name="Path 343" style={{'fill': '#fff'}} d="M2.079,0C1.369,0,.693.081,0,.1V11.741c.693-.016,1.369-.1,2.079-.1C33.044,11.644,58.5,35.4,58.5,64.3c0,.647-.087,1.294-.1,1.941H70.871c.017-.647.1-1.294.1-1.941,0-35.37-31-64.3-68.9-64.3Zm0,0"/>
</svg>
