<svg id="Group_344" data-name="Group 344" xmlns="http://www.w3.org/2000/svg" viewBox="0 0 363.049 83.479">
  <defs>
    <style>
      .cls-1 {
        fill: #fff;
      }
    </style>
  </defs>
  <g id="Group_317" data-name="Group 317" transform="translate(0 0)">
    <path id="Path_315" data-name="Path 315" class="cls-1" d="M35.947,83.555a2.4,2.4,0,0,1-1.271-.333,2.572,2.572,0,0,1-1.156-1.887l-.347-27.743a2.348,2.348,0,0,1,1.387-2.108l12.6-5.438a2.809,2.809,0,0,1,2.312.111,2.572,2.572,0,0,1,1.156,1.887l.231,19.2a2.372,2.372,0,0,1-4.739.111l-.231-15.758-7.86,3.44.347,22.75L68.194,64.8l-.462-31.295L47.274,20.855,28.549,45.713,29.012,81A2.369,2.369,0,0,1,25.2,82.889L1.387,66.243a2.286,2.286,0,0,1-.925-1.776L0,30.62a2.064,2.064,0,0,1,.578-1.443L21.036,5.54a2.389,2.389,0,0,1,2.89-.555L37.1,11.533l-.116-4.661a2.09,2.09,0,0,1,1.271-2L46.927.325a2.539,2.539,0,0,1,2.2,0l4.045,1.887a2.2,2.2,0,0,1,1.271,2l.116,9.877a2.372,2.372,0,0,1-4.739.111L49.7,5.651l-1.618-.777L41.841,8.2l.116,7.1a2.414,2.414,0,0,1-3.468,2.108L23.464,9.979,4.739,31.4,5.2,63.247,24.157,76.564l-.462-31.517a1.888,1.888,0,0,1,.462-1.332L44.731,16.638a2.433,2.433,0,0,1,3.236-.555L71.315,30.51a2.158,2.158,0,0,1,1.04,1.887l.462,33.736a2.348,2.348,0,0,1-1.387,2.109L36.871,83.333a2.812,2.812,0,0,1-.925.222" transform="translate(0 -0.075)"/>
    <path id="Path_316" data-name="Path 316" class="cls-1" d="M82.1,43.346l1.5-1.665c3.352,3,6.473,4.439,11.1,4.439s7.744-2.441,7.744-5.882v-.111c0-3.107-1.734-4.994-8.669-6.325-7.4-1.443-10.4-3.884-10.4-8.323v-.111c0-4.439,4.161-7.768,9.94-7.768a15.968,15.968,0,0,1,10.518,3.551l-1.5,1.776A13.377,13.377,0,0,0,93.08,19.6c-4.508,0-7.513,2.441-7.513,5.549v.111c0,3.107,1.618,4.994,9.016,6.436,7.166,1.443,10.171,3.884,10.171,8.212v.111c0,4.772-4.277,8.1-10.171,8.1A18.366,18.366,0,0,1,82.1,43.346" transform="translate(12.794 1.848)"/>
    <path id="Path_317" data-name="Path 317" class="cls-1" d="M107.9,18h11.212c6.819,0,11.443,3.329,11.443,9.1v.111c0,6.215-5.548,9.433-12.021,9.433h-8.322V47.63H107.9Zm10.749,16.535c5.779,0,9.593-2.885,9.593-7.324V27.1c0-4.661-3.814-7.1-9.362-7.1h-8.669V34.535Z" transform="translate(16.815 1.892)"/>
    <path id="Path_318" data-name="Path 318" class="cls-1" d="M132.9,18h21.961v2H135.212V31.65H152.9v2H135.212V45.521h19.88V47.63H132.9Z" transform="translate(20.711 1.892)"/>
    <path id="Path_319" data-name="Path 319" class="cls-1" d="M158.1,18h21.961v2H160.412V31.65H177.98v2H160.412V45.521h19.765V47.63H158.1Z" transform="translate(24.638 1.892)"/>
    <path id="Path_320" data-name="Path 320" class="cls-1" d="M183.2,18h10.287C203.2,18,209.9,24.436,209.9,32.759v.111c0,8.323-6.7,14.759-16.413,14.759H183.2Zm10.287,27.521c8.553,0,13.986-5.66,13.986-12.651v-.111c0-6.991-5.432-12.762-13.986-12.762h-7.975V45.521Z" transform="translate(28.549 1.892)"/>
    <path id="Path_321" data-name="Path 321" class="cls-1" d="M211.9,18H226c3.93,0,6.935,1.11,9.016,3a9.1,9.1,0,0,1,2.658,6.769v.111c0,4.772-2.658,7.768-6.588,9.211L238.6,47.63h-7.975L224.036,38.2h-5.317V47.63H211.9V18Zm13.639,14.427c3.352,0,5.2-1.665,5.2-4.217V28.1c0-2.774-2.081-4.217-5.317-4.217h-6.7v8.545Z" transform="translate(33.022 1.892)"/>
    <path id="Path_322" data-name="Path 322" class="cls-1" d="M239,18h23.348v5.771H245.819v5.993h14.448v5.882H245.819v6.215h16.76V47.63H239Z" transform="translate(37.245 1.892)"/>
    <path id="Path_323" data-name="Path 323" class="cls-1" d="M264.2,18h6.242L284.89,36.2V18h6.7V47.63h-5.779L270.9,28.764V47.63h-6.7Z" transform="translate(41.172 1.892)"/>
    <path id="Path_324" data-name="Path 324" class="cls-1" d="M301.362,23.993H292V18h25.544v5.993h-9.362V47.63h-6.819Z" transform="translate(45.505 1.892)"/>
  </g>
</svg>
