<svg xmlns="http://www.w3.org/2000/svg" viewBox="0 0 66.914 80">
  <defs>
    <style>
      .cls-1 {
        fill: #383838;
      }
    </style>
  </defs>
  <path id="Path_1" data-name="Path 1" class="cls-1" d="M33.006,79.986A2.178,2.178,0,0,1,30.8,77.833L30.471,51.31A2.178,2.178,0,0,1,31.757,49.3l11.575-5.228a2.179,2.179,0,0,1,3.075,1.966l.224,18.415a2.181,2.181,0,0,1-4.362.056l-.186-15.079L34.852,52.68l.27,21.761L62.54,61.962l-.373-29.906L43.425,20.006,26.184,43.724l.419,33.8a2.182,2.182,0,0,1-3.467,1.789L1.292,63.407A2.159,2.159,0,0,1,.4,61.673L0,29.335a2.2,2.2,0,0,1,.5-1.426L19.353,5.337A2.175,2.175,0,0,1,22.028,4.8L34.153,11.05,34.1,6.576a2.206,2.206,0,0,1,1.128-1.948L43.174.258A2.172,2.172,0,0,1,45.243.239l3.663,1.92a2.2,2.2,0,0,1,1.174,1.9l.121,9.45a2.181,2.181,0,1,1-4.361.056l-.1-8.145-1.482-.774L38.477,7.825l.084,6.8a2.179,2.179,0,0,1-1.034,1.883,2.214,2.214,0,0,1-2.153.084L21.581,9.475,4.368,30.08,4.74,60.527,22.177,73.22,21.8,43.053a2.119,2.119,0,0,1,.419-1.3L41.1,15.775a2.178,2.178,0,0,1,2.945-.55L65.5,29.027a2.148,2.148,0,0,1,1,1.808l.41,32.5a2.184,2.184,0,0,1-1.277,2.013L33.873,79.79A2,2,0,0,1,33.006,79.986Z" transform="translate(0.004 0.014)"/>
</svg>
