<svg id="Group_470" data-name="Group 470" xmlns="http://www.w3.org/2000/svg" viewBox="0 0 65.966 65.937">
  <defs>
    <style>
      .cls-1 {
        fill: #fff;
      }
    </style>
  </defs>
  <path id="Path_785" data-name="Path 785" class="cls-1" d="M65.865,51.124c-.216-.575-1.366-1.366-3.6-2.517-.575-.36-1.438-.791-2.517-1.438-1.079-.575-2.085-1.15-2.948-1.654s-1.726-1.007-2.517-1.438c-.144-.072-.5-.36-1.15-.791a17.114,17.114,0,0,0-1.654-1.007,2.974,2.974,0,0,0-1.366-.36,3.74,3.74,0,0,0-2.373,1.366,24.613,24.613,0,0,0-2.589,2.876,19.5,19.5,0,0,1-2.517,2.876c-.863.863-1.582,1.366-2.157,1.366a3.549,3.549,0,0,1-1.079-.216,3.847,3.847,0,0,1-.935-.431,10.874,10.874,0,0,0-1.15-.647c-.5-.36-.863-.5-.863-.575a48.532,48.532,0,0,1-11-8.125,49.61,49.61,0,0,1-8.125-11,5.03,5.03,0,0,0-.575-.863,5.056,5.056,0,0,1-.647-1.15c-.144-.216-.216-.575-.431-.935a3.549,3.549,0,0,1-.216-1.079,3.386,3.386,0,0,1,1.366-2.157A32.74,32.74,0,0,1,19.7,20.709a19.913,19.913,0,0,0,2.876-2.589,4.113,4.113,0,0,0,1.366-2.373,3.516,3.516,0,0,0-.36-1.366,17.114,17.114,0,0,0-1.007-1.654c-.431-.647-.719-1.079-.791-1.15-.431-.791-.935-1.582-1.438-2.517-.5-.863-1.079-1.87-1.654-2.948S17.617,4.17,17.257,3.6C16.179,1.438,15.316.216,14.74,0c-.072.072-.431,0-.863,0A13.19,13.19,0,0,0,10.57.5,15.807,15.807,0,0,0,7.334,1.51C5.752,2.157,4.1,4.1,2.373,7.262A17.766,17.766,0,0,0,0,15.891c0,.863.072,1.654.144,2.445a26.9,26.9,0,0,0,.575,2.732c.288,1.007.5,1.726.647,2.229a21.738,21.738,0,0,1,1.007,2.589c.5,1.222.719,2.013.863,2.3a39.378,39.378,0,0,0,3.883,8.2A67.366,67.366,0,0,0,17.185,48.751,69.848,69.848,0,0,0,29.553,58.818a39.378,39.378,0,0,0,8.2,3.883,23.984,23.984,0,0,1,2.3.863,25.626,25.626,0,0,0,2.589.935c.5.144,1.222.431,2.229.719a14.322,14.322,0,0,0,2.732.575,13.551,13.551,0,0,0,2.445.144,18.24,18.24,0,0,0,8.7-2.373c3.164-1.726,5.033-3.38,5.68-4.961a22.1,22.1,0,0,0,1.007-3.236,17.662,17.662,0,0,0,.5-3.308,1.906,1.906,0,0,0-.072-.935Zm0,0" transform="translate(0)"/>
</svg>
